<?xml version="1.0" standalone="no"?>
<!DOCTYPE svg PUBLIC "-//W3C//DTD SVG 20010904//EN"
 "http://www.w3.org/TR/2001/REC-SVG-20010904/DTD/svg10.dtd">
<svg version="1.0" xmlns="http://www.w3.org/2000/svg"
 width="512.000000pt" height="512.000000pt" viewBox="0 0 512.000000 512.000000"
 preserveAspectRatio="xMidYMid meet">

<g transform="translate(0.000000,512.000000) scale(0.100000,-0.100000)"
fill="#000000" stroke="none">
<path d="M3027 4691 c-327 -95 -585 -175 -595 -184 -21 -22 -19 -65 6 -149
l21 -68 -405 0 -404 0 0 174 c0 156 -2 176 -19 197 l-19 24 -608 3 c-648 3
-657 2 -675 -45 -5 -15 -9 -824 -9 -1989 l0 -1964 -77 0 c-93 0 -143 -20 -190
-73 -86 -98 -59 -257 55 -324 l47 -28 260 -3 c254 -3 261 -3 288 18 34 27 37
80 7 110 -19 19 -33 20 -264 20 -231 0 -245 1 -270 21 -29 23 -33 54 -10 87
l15 22 2379 0 2379 0 15 -22 c23 -33 19 -64 -10 -87 l-27 -21 -1968 0 c-1956
0 -1969 0 -1989 -20 -30 -30 -27 -83 7 -109 l26 -21 1986 2 1986 3 47 28 c114
66 141 219 57 320 -61 74 -46 71 -514 77 l-420 5 305 88 c167 48 314 94 327
102 12 9 25 26 28 38 8 30 -647 2312 -671 2338 -38 43 -124 11 -124 -46 0 -14
104 -386 230 -825 127 -440 230 -805 230 -813 0 -17 -980 -299 -985 -283 -2 6
-140 483 -305 1060 -212 737 -298 1051 -290 1056 12 7 959 280 971 280 4 0 19
-45 34 -100 16 -55 37 -107 47 -117 22 -20 71 -21 94 -3 40 34 39 37 -151 702
-159 552 -189 646 -211 666 -14 12 -33 22 -42 21 -9 -1 -277 -76 -595 -168z
m561 -68 c56 -185 113 -395 109 -399 -6 -6 -979 -286 -982 -282 -4 4 -134 462
-132 464 3 2 971 282 979 283 3 1 15 -29 26 -66z m-2088 -328 l0 -245 -515 0
-515 0 0 245 0 245 515 0 515 0 0 -245z m980 -400 l0 -245 -415 0 -415 0 0
245 0 245 415 0 415 0 0 -245z m1300 61 c17 -60 28 -112 23 -116 -8 -8 -894
-265 -951 -276 -28 -6 -28 -6 -61 111 -18 64 -31 118 -29 120 10 9 974 280
980 276 3 -3 21 -55 38 -115z m-2280 -181 l0 -125 -515 0 -515 0 0 125 0 125
515 0 515 0 0 -125z m1560 -1580 c233 -808 425 -1478 428 -1487 4 -17 -21 -18
-427 -18 l-431 0 -2 821 -3 821 -24 19 c-30 25 -62 24 -95 -2 l-26 -20 0 -520
0 -519 -415 0 -415 0 0 199 c0 179 -2 201 -19 222 -26 32 -86 32 -112 0 -17
-21 -19 -43 -19 -222 l0 -199 -515 0 -515 0 0 1105 0 1105 515 0 515 0 0 -760
0 -761 26 -26 c20 -20 31 -24 57 -19 70 13 67 -14 67 607 l0 559 415 0 415 0
0 -245 0 -246 25 -24 c13 -14 31 -25 39 -25 28 0 64 22 75 47 8 16 11 184 11
545 0 287 2 519 4 517 2 -2 194 -665 426 -1474z m-580 1180 l0 -125 -415 0
-415 0 0 125 0 125 415 0 415 0 0 -125z m2030 -1958 c0 -2 27 -97 60 -212 33
-114 59 -209 58 -210 -2 -2 -219 -65 -483 -140 -264 -76 -485 -140 -491 -142
-16 -6 -137 421 -121 427 24 9 952 278 965 279 6 0 12 0 12 -2z m-3010 -502
l0 -225 -515 0 -515 0 0 225 0 225 515 0 515 0 0 -225z m980 0 l0 -225 -415 0
-415 0 0 225 0 225 415 0 415 0 0 -225z"/>
<path d="M762 3177 l-22 -23 0 -762 c0 -749 0 -762 20 -782 25 -25 71 -26 101
-1 l24 19 0 767 0 767 -24 19 c-32 26 -73 24 -99 -4z"/>
<path d="M1123 2958 c-12 -6 -27 -24 -32 -41 -7 -19 -11 -205 -11 -529 0 -418
2 -504 15 -527 23 -46 80 -56 115 -21 20 20 20 33 20 554 l0 535 -26 20 c-29
23 -48 25 -81 9z"/>
<path d="M2019 2781 l-24 -19 -3 -559 c-2 -555 -2 -560 18 -586 27 -34 80 -37
110 -7 20 20 20 33 20 584 l0 565 -26 20 c-33 26 -65 27 -95 2z"/>
<path d="M3262 3204 c-51 -36 -57 -8 163 -777 174 -606 211 -726 231 -744 28
-26 42 -28 77 -12 60 27 65 3 -158 783 -174 606 -211 725 -231 744 -29 26 -51
28 -82 6z"/>
<path d="M3645 3065 c-14 -13 -25 -31 -25 -40 0 -9 63 -238 141 -508 98 -342
147 -499 162 -514 35 -39 99 -25 118 24 14 36 -264 1006 -298 1041 -29 29 -68
28 -98 -3z"/>
</g>
</svg>
